<svg width="527" height="211" viewBox="0 0 527 211" fill="none" xmlns="http://www.w3.org/2000/svg">
<path d="M19.8428 52.9355H0.673828V158.064H19.8525L19.8428 52.9355Z" fill="white"/>
<path d="M121.708 52.9355H102.529V125.804L48.6059 52.9355H29.4321V158.064H48.6059V85.1905L102.539 158.064H121.717L121.708 52.9355Z" fill="white"/>
<path d="M172.047 52.9355H131.297V158.064H172.047C185.946 158.049 199.27 152.504 209.101 142.647C218.923 132.794 224.454 119.439 224.473 105.507C224.454 91.5745 218.928 78.2146 209.101 68.362C199.275 58.4998 185.946 52.9501 172.047 52.9355ZM202.781 118.246C201.11 122.292 198.66 125.969 195.57 129.064C192.48 132.159 188.814 134.613 184.774 136.282C180.735 137.951 176.41 138.805 172.047 138.795H150.476V72.1265H172.047C176.415 72.1168 180.745 72.9706 184.789 74.6442C188.828 76.3178 192.499 78.7725 195.589 81.8723C198.679 84.9722 201.129 88.6542 202.796 92.7048C204.462 96.7555 205.319 101.097 205.309 105.483C205.309 109.863 204.452 114.2 202.781 118.246Z" fill="white"/>
<path d="M250.825 52.9355H231.665V158.064H250.839L250.825 52.9355Z" fill="white"/>
<path d="M344.306 52.9355H260.409V72.1701H292.795V158.064H311.973V72.1265H344.335L344.306 52.9355Z" fill="white"/>
<path d="M426.668 138.795H373.04V115.097H426.668V95.8629H373.04V72.1265H426.668V52.9355H353.895V158.064H426.668V138.795Z" fill="white"/>
<path d="M491.328 104.537L525.457 52.9355H501.663L479.661 87.1212L457.649 52.9355H433.855L467.984 104.58L432.915 158.059H456.864L479.617 121.986L502.36 158.059H526.314L491.328 104.537Z" fill="white"/>
</svg>
